<?xml version="1.0" encoding="UTF-8"?>
<svg id="Capa_1" xmlns="http://www.w3.org/2000/svg" version="1.1" viewBox="0 0 600 600">
  <!-- Generator: Adobe Illustrator 29.7.1, SVG Export Plug-In . SVG Version: 2.1.1 Build 8)  -->
  <defs>
    <style>
      .st0 {
        fill: #ec003f;
      }
    </style>
  </defs>
  <path class="st0" d="M19.7,384.6c3.8-52.7,35.4-104.4,82.4-133.1,46.9-28.7,112.1-38.3,167.6-17.2-19.2,15.3-36.4,32.6-48.8,52.7-106.3-14.4-176.2,106.3-104.4,184.9,71.8,78.5,174.3,42.1,199.2-44.1,24.9-86.2-1-58.4,28.7-87.2,29.7-28.7,23.9-18.2,26.8-15.3,1.9,7.7,5.7,15.3,8.6,23,31.6,106.3-46,216.5-160,225.1h-1.9c0,1-26.8,1-26.8,1l-23-3.8c-70.9-14.4-128.3-69-142.7-137.9l-3.8-23v-25.9l-1.9,1Z"/>
  <path class="st0" d="M415.3,574.2h-26.8c-9.6-1.9-19.2-2.9-28.7-4.8-9.6-1.9-16.3-3.8-23.9-7.7,19.2-14.4,36.4-32.6,48.8-52.7,101.5,13.4,173.4-98.7,110.1-179.1s-180.1-50.8-205,38.3c-24.9,89.1-1.9,37.4-8.6,55.6-6.7,18.2-14.4,26.8-25.9,36.4s-18.2,13.4-21.1,11.5c-35.4-80.5-8.6-173.4,67-221.3,75.7-47.9,201.1-28.7,254.8,53.6,53.6,82.4-4.8,259.6-139.8,269.1h-1.9l1,1Z"/>
  <path class="st0" d="M252.4,29.2c19.2-1.9,35.4,3.8,49.8,15.3,6.7-2.9,10.5-7.7,17.2-10.5,52.7-22,124.3,28.7,84.3,77.6-34.6,42.3-26.8,33.5-39.3,45-20.1,20.1-41.2,39.3-61.3,59.4l-2.9-1.9c-22-21.1-44.1-42.1-65.1-64.2-21.1-22-31.6-25.9-37.4-48.8-7.7-34.5,17.2-69.9,54.6-72.8v1Z"/>
</svg>