<?xml version="1.0" encoding="UTF-8"?>
<svg id="Capa_1" xmlns="http://www.w3.org/2000/svg" version="1.1" viewBox="0 0 80 80">
  <!-- Generator: Adobe Illustrator 29.7.1, SVG Export Plug-In . SVG Version: 2.1.1 Build 8)  -->
  <defs>
    <style>
      .st0 {
        fill: #c70036;
      }
    </style>
  </defs>
  <path class="st0" d="M2.1,51.3c.5-7.2,4.8-14.2,11.2-18.1s15.3-5.2,22.8-2.3c-2.6,2.1-5,4.4-6.7,7.2-14.5-2-24,14.5-14.2,25.2s23.7,5.7,27.1-6c3.4-11.7-.1-8,3.9-11.9s3.3-2.5,3.7-2.1c.3,1,.8,2.1,1.2,3.1,4.3,14.5-6.3,29.5-21.8,30.7h-.3c0,.1-3.7.1-3.7.1l-3.1-.5c-9.7-2-17.5-9.4-19.4-18.8"/>
  <path class="st0" d="M56,77.2h-3.7c-1.3-.3-2.6-.4-3.9-.7s-2.2-.5-3.3-1c2.6-2,5-4.4,6.7-7.2,13.8,1.8,23.6-13.4,15-24.4-8.6-11-24.5-6.9-27.9,5.2-3.4,12.1-.3,5.1-1.2,7.6s-2,3.7-3.5,5-2.5,1.8-2.9,1.6c-4.8-11-1.2-23.6,9.1-30.1s27.4-3.9,34.7,7.3c7.3,11.2-.7,35.4-19,36.7h-.3.1Z"/>
  <path class="st0" d="M33.8,2.9c2.6-.3,4.8.5,6.8,2.1.9-.4,1.4-1,2.3-1.4,7.2-3,14.2,3.7,11.5,10.6-2.7,6.9-3.7,4.6-5.3,6.1-2.7,2.7-5.6,5.3-8.3,8.1l-.4-.3c-3-2.9-6-5.7-8.9-8.7s-4.3-3.5-5.1-6.7c-1-4.7,2.3-9.5,7.4-9.9h0Z"/>
</svg>