<?xml version="1.0" encoding="UTF-8"?>
<svg id="Capa_1" xmlns="http://www.w3.org/2000/svg" version="1.1" viewBox="0 0 222.5 66.6">
  <!-- Generator: Adobe Illustrator 29.7.1, SVG Export Plug-In . SVG Version: 2.1.1 Build 8)  -->
  <defs>
    <style>
      .st0 {
        fill: #c70036;
      }
    </style>
  </defs>
  <g>
    <path class="st0" d="M5.6,18.2c0-.8,0-1.5.2-2,.1-.6.4-1.1.8-1.4.4-.4.9-.7,1.6-.9.7-.2,1.5-.3,2.6-.3h14.9c1.3,0,2.3.2,2.9.6.7.4,1.2.8,1.4,1.4.3.6.4,1.2.4,1.8,0,.6,0,1.2,0,1.7v37.7c1.5-.2,3-.4,4.3-.6.6,0,1.1-.1,1.7-.2.6,0,1.1-.1,1.6-.2.5,0,.9-.1,1.3-.1s.7,0,.8,0c.4,0,.7,0,.9.2.2.1.3.4.3.9v3.1c0,.4-.2.8-.5,1.1-.3.3-.9.5-1.6.5H10.6c-1,0-1.9-.1-2.5-.3-.7-.2-1.2-.5-1.5-.9-.4-.4-.6-.9-.8-1.4-.1-.6-.2-1.3-.2-2V18.2Z"/>
    <path class="st0" d="M64.3,62.5c-1.7,0-3.3-.1-5-.4-1.7-.3-3.3-.7-4.8-1.3-1.5-.6-2.9-1.3-4.2-2.3-1.3-.9-2.4-2.1-3.4-3.4-1-1.4-1.7-2.9-2.3-4.7-.6-1.8-.8-3.8-.8-6.1s.3-4.3.8-6.1c.6-1.8,1.3-3.4,2.3-4.7,1-1.4,2.1-2.5,3.4-3.4,1.3-.9,2.7-1.7,4.2-2.3,1.5-.6,3.1-1,4.8-1.3,1.7-.3,3.3-.4,5-.4s3.1,0,4.7.3c1.6.2,3.2.5,4.7,1,1.5.5,3,1.2,4.3,2,1.3.9,2.5,1.9,3.5,3.3,1,1.3,1.8,2.9,2.4,4.8.6,1.9.9,4,.9,6.5s-.3,4.8-.9,6.7c-.6,1.9-1.4,3.6-2.4,4.9-1,1.4-2.2,2.5-3.5,3.4-1.3.9-2.8,1.6-4.3,2.1s-3.1.8-4.7,1c-1.6.2-3.2.3-4.8.3ZM74.5,54.5c.7,0,1.4-.1,2-.4.7-.3,1.3-.8,1.8-1.6.5-.8.9-1.8,1.3-3.2.3-1.4.5-3.1.5-5.2s-.2-3.6-.5-4.9c-.3-1.3-.7-2.3-1.3-3-.5-.7-1.1-1.3-1.8-1.5-.7-.3-1.3-.4-2-.4s-1.1.1-1.8.3c-.7.2-1.3.7-1.8,1.4-.6.7-1,1.8-1.4,3.1-.4,1.3-.6,3.1-.6,5.4s.2,4,.5,5.4c.3,1.4.7,2.4,1.2,3.1.5.7,1.1,1.2,1.8,1.4.7.2,1.4.3,2.1.3Z"/>
    <path class="st0" d="M113.3,41.7l4.6-12.5c.2-.6.4-1,.6-1.4.2-.4.7-.5,1.4-.5h3.5c.6,0,1,.2,1,.6s-.1.6-.4,1.2l-12.8,30.1c-.3.8-.7,1.3-1,1.7-.4.4-.9.6-1.6.6h-5.3c-.5,0-.9,0-1.2-.2-.3-.1-.6-.3-.8-.5-.2-.2-.4-.5-.5-.7-.1-.3-.2-.5-.3-.7l-13.7-29.1c-.2-.4-.3-.8-.3-1.2,0-.6.2-1,.6-1.2.4-.3.9-.4,1.3-.4h16.2c.6,0,1,0,1.4,0,.4,0,.7.1.9.2.2.1.4.3.6.4.2.2.3.4.4.7l5.2,13Z"/>
    <path class="st0" d="M127.6,31.8c0-.8,0-1.4.2-2,.1-.6.4-1.1.8-1.4.4-.4.9-.7,1.6-.9s1.5-.3,2.6-.3h14.6c1,0,1.8,0,2.5.3.6.2,1.1.5,1.5.8.4.4.6.9.7,1.4.1.6.2,1.3.2,2.1v24.9c0,.8,0,1.4-.2,2-.1.6-.3,1-.7,1.4-.4.4-.8.7-1.5.9-.6.2-1.5.3-2.5.3h-14.6c-1.1,0-1.9-.1-2.6-.3s-1.2-.5-1.6-.9c-.4-.4-.6-.9-.8-1.4-.1-.6-.2-1.3-.2-2v-24.8ZM128.8,13c0-1.5.3-3,.9-4.3.6-1.4,1.4-2.5,2.4-3.5,1-1,2.2-1.8,3.5-2.4,1.4-.6,2.8-.9,4.3-.9s2.9.3,4.3.9c1.3.6,2.5,1.4,3.5,2.4s1.8,2.2,2.4,3.5c.6,1.4.9,2.8.9,4.3s-.3,2.9-.9,4.3c-.6,1.3-1.4,2.5-2.4,3.5-1,1-2.2,1.8-3.5,2.4-1.3.6-2.8.9-4.3.9s-3-.3-4.3-.9c-1.4-.6-2.5-1.4-3.5-2.4-1-1-1.8-2.2-2.4-3.5-.6-1.3-.9-2.8-.9-4.3Z"/>
  </g>
  <g>
    <path class="st0" d="M160.1,42.7c.4-5.5,3.7-10.9,8.6-13.9s11.7-4,17.5-1.8c-2,1.6-3.8,3.4-5.1,5.5-11.1-1.5-18.4,11.1-10.9,19.3s18.2,4.4,20.8-4.6-.1-6.1,3-9.1,2.5-1.9,2.8-1.6c.2.8.6,1.6.9,2.4,3.3,11.1-4.8,22.6-16.7,23.5h-.2c0,.1-2.8.1-2.8.1l-2.4-.4c-7.4-1.5-13.4-7.2-14.9-14.4l-.4-2.4c0-.9,0-1.8,0-2.7Z"/>
    <path class="st0" d="M201.4,62.5h-2.8c-1-.2-2-.3-3-.5s-1.7-.4-2.5-.8c2-1.5,3.8-3.4,5.1-5.5,10.6,1.4,18.1-10.3,11.5-18.7s-18.8-5.3-21.4,4-.2,3.9-.9,5.8-1.5,2.8-2.7,3.8-1.9,1.4-2.2,1.2c-3.7-8.4-.9-18.1,7-23.1s21-3,26.6,5.6-.5,27.1-14.6,28.1h-.2Z"/>
    <path class="st0" d="M184.4,5.6c2-.2,3.7.4,5.2,1.6.7-.3,1.1-.8,1.8-1.1,5.5-2.3,10.9,2.8,8.8,8.1s-2.8,3.5-4.1,4.7c-2.1,2.1-4.3,4.1-6.4,6.2l-.3-.2c-2.3-2.2-4.6-4.4-6.8-6.7s-3.3-2.7-3.9-5.1c-.8-3.6,1.8-7.3,5.7-7.6Z"/>
  </g>
</svg>